<?xml version="1.0" encoding="UTF-8"?><svg id="a" xmlns="http://www.w3.org/2000/svg" width="258.72mm" height="242.87mm" viewBox="0 0 733.39 688.45"><g><path d="m60.87,638.53c-26.09,0-43.67-17.09-38.94-43.94,5.78-32.81,39.07-58.9,71.26-58.9,26.09,0,43.52,17.09,38.79,43.94-5.78,32.81-38.92,58.9-71.11,58.9Zm25.35-73.7c-13.88,0-28.73,14.95-31.09,28.38-1.64,9.31,2.89,16.48,12.5,16.48,13.88,0,28.73-14.95,31.09-28.38,1.64-9.31-2.89-16.48-12.5-16.48Z" fill="#2f3a7d" stroke="#232422" stroke-miterlimit="10"/><path d="m178.69,635.78l-9.59-33.87h-3.66l-11.92,33.87h-30.97l34.25-97.35h41.19c16.48,0,27.34,10.22,24.33,27.31-1.96,11.14-11.26,23.19-22.34,28.08l13.96,41.96h-35.24Zm6.87-71.87h-6.71l-4.92,14.04h6.25c4.73,0,10.11-3.66,10.99-8.7.65-3.66-2.42-5.34-5.62-5.34Z" fill="#2f3a7d" stroke="#232422" stroke-miterlimit="10"/><path d="m252.53,635.78h-36.92l34.25-97.35h35.85c24.72,0,40.7,16.63,36.24,41.96-5.92,33.57-37.38,55.39-69.42,55.39Zm22.33-71.26h-3.2l-15.92,45.32h3.2c15.41,0,28.04-14.5,30.59-28.99,1.91-10.83-4.29-16.33-14.67-16.33Z" fill="#2f3a7d" stroke="#232422" stroke-miterlimit="10"/><path d="m346.67,635.78h-32.5l34.25-97.35h32.5l-34.25,97.35Z" fill="#2f3a7d" stroke="#232422" stroke-miterlimit="10"/><path d="m448.49,613.51l1.77,6.85c-.79.54-2.4,1.02-4.83,1.41-2.43.4-5.56.74-9.38,1.04-5.12,4.26-10.11,7.8-14.95,10.63-4.85,2.83-9.52,4.91-14.03,6.25-1.05.3-2.25.62-3.6.97-.79,0-1.64-.16-2.52-.48-.89-.32-1.85-.78-2.89-1.38-1.06-.74-1.85-1.46-2.38-2.16-.52-.7-.72-1.42-.59-2.16.26-1.49,1.24-2.93,2.92-4.32,1.69-1.39,4.03-2.71,7.03-3.95,6.02-2.58,11.96-5.19,17.84-7.82.79,0,1.34.16,1.63.48.29.32.39.73.3,1.23-.24,1.34-1.39,2.47-3.47,3.39-2.07.92-3.15,1.58-3.22,1.97.26.5.51.75.76.75.65,0,2.24-.97,4.8-2.91,2.55-1.94,3.85-3.15,3.89-3.65l-.07-1.71.2-.3c1.49-1.14,2.63-2.16,3.41-3.05.78-.89,1.22-1.61,1.31-2.16.22-1.24-.11-2.91-.98-4.99-.88-2.09-2.29-4.59-4.26-7.52-1.49-2.28-3.01-4.33-4.58-6.15-1.57-1.81-3.1-3.41-4.59-4.8-.59-.6-1.08-1.18-1.48-1.75-.4-.57-.7-1.1-.91-1.6-.37-.99-.66-1.81-.87-2.46-.21-.64-.42-1.07-.63-1.27-.2-.3-.47-.66-.82-1.08-.35-.42-.77-.9-1.27-1.45-.85-1.09-1.39-2.61-1.62-4.54-.23-1.94-.09-4.34.42-7.23.33-1.89.92-3.71,1.75-5.47s1.87-3.34,3.11-4.73c.2-.3.41-.65.63-1.04.22-.4.47-.84.76-1.34,1.55-2.33,3.93-4.85,7.14-7.56s7.29-5.58,12.25-8.6c.65-.3,1.44-.7,2.37-1.19.93-.5,1.99-1.14,3.17-1.94.68-.5,1.42-.94,2.21-1.34.79-.4,1.71-.77,2.77-1.12,1.44-.55,3.06-1.14,4.86-1.79,2.71-1.29,4.94-2.23,6.68-2.83,1.75-.6,3.04-.89,3.88-.89,1.64,0,2.78.5,3.42,1.49.64.99.8,2.43.47,4.32-.37,2.09-.83,3.79-1.38,5.1-.56,1.32-1.15,2.2-1.77,2.64-6.68,4.67-12.02,8.18-16.01,10.54-3.99,2.36-6.71,3.54-8.15,3.54-.7,0-1.21-.2-1.54-.6s-.42-.99-.28-1.79c.24-1.34,1.62-2.82,4.13-4.43,2.52-1.61,3.83-2.84,3.93-3.69l-.59-.45c-.25,0-.55.07-.9.22-.35.15-.72.35-1.11.6-4.99,3.53-8.84,6.69-11.55,9.5-2.71,2.81-4.24,5.25-4.61,7.34-.29,1.64-.3,3.3-.02,4.99.27,1.69.8,3.43,1.58,5.21.58,1.24,1.45,2.82,2.63,4.73,1.18,1.91,2.7,4.21,4.56,6.89,2.57,3.73,4.55,6.61,5.93,8.64,1.38,2.04,2.16,3.1,2.34,3.2.76,1.29,1.38,2.58,1.85,3.87.47,1.29.72,2.53.76,3.73.08.94.05,2.11-.1,3.5s-.39,3.08-.74,5.07c-.21,1.17-.15,1.84.17,2.01.32.17.87.26,1.67.26.3,0,.54-.06.74-.19.2-.12.41-.28.64-.48Z" fill="#821f1b"/><path d="m448.41,613.58c.78-1.04,1.74-2.1,2.87-3.17,1.13-1.07,2.52-2.17,4.16-3.32.33-.99.65-1.97.97-2.94.32-.97.59-1.95.82-2.94.27-.7.65-1.51,1.14-2.46.49-.94,1.03-1.96,1.62-3.05.64-1.09,1.49-2.46,2.55-4.1,1.06-1.64,2.39-3.48,3.99-5.51,1.24-1.14,2.56-2.4,3.94-3.76,1.38-1.36,2.77-2.74,4.16-4.13.62-.45,1.29-.87,2.01-1.27.71-.4,1.44-.84,2.17-1.34.63-.2,1.33-.37,2.1-.52.77-.15,1.6-.22,2.5-.22,1.24,0,2.22.12,2.95.37.73.25,1.29.67,1.68,1.27.28.4.51.99.69,1.79.18.79.32,1.76.42,2.91-.03.99-.04,2.09-.06,3.28.05-.3-.06-.17-.33.37-.27.55-.68,1.42-1.24,2.61l-1.09,2.38c-1.12,2.38-3.17,5.14-6.15,8.27-2.99,3.13-6.9,6.71-11.73,10.73-.41.35-.78.78-1.12,1.3-.34.52-.56,1.08-.67,1.68-.18,1.04-.16,1.96.07,2.76.23.8.66,1.39,1.29,1.79.34.3.93.6,1.74.89.82.3,1.8.57,2.95.82,1.96-.15,3.78-.47,5.46-.97,1.68-.5,3.2-1.09,4.56-1.79.28-.15.71-.36,1.3-.63.59-.27,1.2-.63,1.83-1.08.39,1.44.74,2.73,1.03,3.87.29,1.14.52,2.14.67,2.98-3.32,2.78-6.26,4.88-8.82,6.3-2.56,1.42-4.81,2.12-6.75,2.12-.88.5-1.85.86-2.91,1.08-1.06.22-2.28.34-3.67.34-1.84,0-3.42-.27-4.74-.82-1.32-.54-2.36-1.34-3.12-2.38-.41-.5-.78-1.23-1.1-2.2-.33-.97-.64-2.12-.95-3.46-.25-1.09-.54-1.9-.84-2.42-.31-.52-.71-.78-1.2-.78-.4,0-.88.19-1.44.56-.56.37-1.21.93-1.94,1.68-.07-.75-.25-1.66-.56-2.76-.3-1.09-.71-2.46-1.21-4.1Zm28.11-24.21c-1.09,0-2.81,1.43-5.15,4.28-2.34,2.86-3.63,4.96-3.87,6.3-.05.3-.03.51.07.63.1.12.35.19.75.19.55,0,1.04-.28,1.49-.86.45-.57.87-1.1,1.25-1.6.63-.5,1.26-1.03,1.88-1.6.62-.57,1.23-1.13,1.82-1.68.72-.69,1.29-1.39,1.71-2.09.42-.69.69-1.39.82-2.09.08-.45.06-.81-.07-1.08-.13-.27-.36-.41-.71-.41Z" fill="#821f1b"/><path d="m485.73,613.58c.98-1.04,1.97-2.14,2.96-3.28,4.15-2.98,7.62-5.85,10.42-8.6,2.8-2.76,4.93-5.33,6.39-7.71l-.12-3.58c.86-1.24,2.72-2.71,5.58-4.4,2.85-1.69,5.08-2.53,6.67-2.53,1.69,0,3.03.5,4.02,1.49.99.99,1.94,2.04,2.84,3.13.49.35.83.62,1.05.82,1.72,1.49,2.85,3.55,3.38,6.18.53,2.63.46,5.84-.2,9.61-.35,1.99-1.62,4.83-3.81,8.53-2.19,3.7-3.45,6.49-3.79,8.38-.04.25,0,.45.16.59.15.15.37.22.67.22.64,0,1.47-.29,2.46-.86.99-.57,2.1-1.35,3.32-2.35,3.09-2.58,4.93-4.01,5.52-4.28.59-.27,1.34-.73,2.25-1.38.22.99.5,2.06.85,3.2.34,1.14.65,2.36.92,3.65-.52.4-1.11.87-1.78,1.42-.67.55-1.46,1.17-2.38,1.86-1.91,1.24-4.37,2.74-7.39,4.51-3.02,1.76-6.62,3.79-10.79,6.07-1.11.64-2.34,1.17-3.7,1.56-2.09,0-3.6-.31-4.53-.93-.93-.62-1.28-1.63-1.03-3.02.1-.55.32-1.18.67-1.9.35-.72.8-1.5,1.34-2.35.41-.64.85-1.3,1.32-1.97.46-.67.88-1.35,1.26-2.05,1.64-3.13,2.99-6.04,4.03-8.72,1.04-2.68,1.75-5.09,2.13-7.23.46-2.63.41-4.64-.17-6.03-.57-1.39-1.66-2.18-3.27-2.38-1.2.6-2.54,1.44-4.02,2.53-1.49,1.09-3.04,2.46-4.67,4.1-1.75,1.79-3.3,3.25-4.65,4.4-1.34,1.14-2.42,1.91-3.24,2.31-.58.75-1.45,1.59-2.61,2.53-1.16.94-2.66,1.96-4.49,3.05-.14.2-.34.5-.61.89-.27.4-.67.84-1.21,1.34-.2-1.14-.44-2.27-.74-3.39s-.64-2.27-1.03-3.46Z" fill="#821f1b"/><path d="m535.27,613.58c.27-.4.85-1.08,1.74-2.05.89-.97,2.13-2.17,3.73-3.61,1.63-1.39,3.02-2.69,4.15-3.91,1.13-1.22,1.98-2.3,2.55-3.24.8-1.14,1.76-2.58,2.88-4.32,1.13-1.74,2.39-3.75,3.78-6.03.19-.25,1.4-1.05,3.63-2.42,2.23-1.37,3.59-2.05,4.09-2.05.64,0,1.05.46,1.21,1.38.16.92.08,2.32-.26,4.21-.49,2.78-.94,5.1-1.34,6.97-.4,1.86-.85,3.37-1.35,4.51.05.25.1.55.14.89.04.35.09.74.16,1.19-.19.5-.4,1.02-.65,1.56-1.04,5.91-1.6,10.32-1.66,13.22-.06,2.91.27,4.36,1.02,4.36.94,0,2.51-1.25,4.69-3.76,2.18-2.51,4.96-6.3,8.33-11.36,3.35-4.92,5.95-8.95,7.8-12.11,1.85-3.15,3.01-5.52,3.49-7.12.94-2.78,2.04-4.88,3.31-6.3,1.27-1.41,2.77-2.12,4.51-2.12.5,0,.82.14.97.41.15.27.18.68.08,1.23-.35,1.99-.97,4.01-1.85,6.07-.88,2.06-2.05,4.11-3.5,6.15-.24,1.34-.81,2.86-1.73,4.54-.92,1.69-2.2,3.55-3.85,5.59-.68,1.34-1.26,2.66-1.74,3.95-.21.65-1.75,2.93-4.6,6.85-2.85,3.92-4.63,6.21-5.34,6.85-.21,1.19-1.03,2.62-2.47,4.28-1.44,1.67-3.54,3.56-6.29,5.7-.61.65-1.24,1.27-1.89,1.86s-1.28,1.19-1.88,1.79c-.67.7-1.37,1.23-2.11,1.6s-1.55.56-2.45.56c-2.68,0-4.54-1.02-5.57-3.06s-1.19-5.09-.47-9.16c.28-.75.49-1.39.64-1.94-.14-.6-.25-1.38-.33-2.35-.08-.97-.06-2.05.05-3.24.28-1.59.5-2.88.65-3.87.15-.99.18-1.66.09-2.01l.82-1.71-.67-.45c-.37.15-1.44.99-3.2,2.53-1.76,1.54-4.27,3.8-7.53,6.78-.15-1.09-.38-2.18-.69-3.28-.3-1.09-.66-2.28-1.08-3.58Z" fill="#821f1b"/><path d="m584.36,613.58l.54-.52.36-.75c1.66-1.84,4.45-4.23,8.35-7.19,3.9-2.95,6.65-5.35,8.27-7.19.64-.79,1.31-1.37,2.01-1.71s1.38-.52,2.03-.52c1.74,0,3.13.43,4.17,1.3s1.6,2.17,1.69,3.91c.08,1.54.12,3.09.15,4.66s0,3.14-.09,4.73c.17.99.33,2.5.47,4.51.14,2.01.31,3.17.51,3.47.16.5.47.86.93,1.08.46.22,1.06.33,1.8.33.89,0,1.84-.16,2.84-.48,1-.32,2.07-.88,3.2-1.68.86-.64,1.76-1.3,2.7-1.97.94-.67,1.86-1.33,2.77-1.97l1.77,6.85c-.93.8-2.15,1.7-3.65,2.72-1.5,1.02-3.28,2.2-5.35,3.54-2.3,1.49-4.23,2.6-5.8,3.31-1.57.72-2.72,1.08-3.47,1.08-4.52,0-7.36-.52-8.52-1.56-1.16-1.04-2.13-3.95-2.93-8.72-.13-.4-.34-.87-.64-1.42-.3-.55-.63-1.19-1-1.94-.39-1.14-.77-2-1.11-2.57-.35-.57-.67-.86-.97-.86-.8,0-1.96.53-3.49,1.6-1.53,1.07-3.45,2.67-5.76,4.8-.13-.64-.31-1.42-.52-2.31-.21-.89-.42-1.94-.6-3.13-.05-.3-.12-.57-.23-.82-.11-.25-.24-.45-.42-.6Zm41.51-58.78c1.24,0,2.1.25,2.59.75.48.5.64,1.22.48,2.16-.54,1.39-1,2.56-1.36,3.5-.81,1.79-1.5,3.25-2.08,4.4-.57,1.14-1,1.96-1.29,2.46-.64,1.09-1.42,2.05-2.33,2.87-.92.82-1.98,1.55-3.18,2.2-1.28.79-2.34,1.35-3.16,1.68-.83.32-1.38.46-1.67.41-.83-.1-1.62-.19-2.38-.26-.76-.07-1.51-.11-2.25-.11-.58-.35-.98-1.02-1.17-2.01-.2-.99-.15-2.33.15-4.02.26-1.49,1.5-3.36,3.71-5.62,2.21-2.26,4.03-3.46,5.44-3.61,1.03-1.04,2.23-2.24,3.61-3.58.56-.35,1.25-.63,2.09-.86.83-.22,1.77-.34,2.82-.34Z" fill="#821f1b"/><path d="m626.82,613.58l.77-.6c.15-.55.61-1.19,1.38-1.94.78-.75,1.85-1.61,3.22-2.61.84-.55,1.72-1.07,2.62-1.56.91-.5,1.79-1.04,2.64-1.64,3.6-2.68,7.09-5.26,10.45-7.75,1.95-1.49,3.87-2.77,5.74-3.84,1.88-1.07,3.62-1.92,5.22-2.57,1.28-1.34,3.47-2.71,6.57-4.1,3.1-1.39,5.55-2.09,7.33-2.09.7,0,1.22.2,1.57.6.35.4.52.89.52,1.49l-.72,4.1c-.25,1.44-.89,2.72-1.91,3.84-1.02,1.12-2.43,2.15-4.23,3.09-1.18.5-2.37,1.04-3.57,1.64-1.2.6-2.39,1.14-3.57,1.64-.49.5-1.71,1.43-3.66,2.79-1.96,1.37-4.6,3.19-7.93,5.48-1.52,1.04-2.81,1.97-3.84,2.79-1.04.82-1.78,1.48-2.21,1.97-.66.94-1.23,1.99-1.71,3.13-.47,1.14-.84,2.46-1.11,3.95-.2,1.14-.2,2.12,0,2.94.2.82.61,1.48,1.22,1.97.43.35,1.06.7,1.86,1.04.81.35,1.83.7,3.06,1.04.8-.3,1.83-.58,3.09-.86,1.26-.27,2.68-.63,4.25-1.08,1.86-.99,3.77-2.04,5.73-3.13,1.96-1.09,3.9-2.21,5.84-3.35.27-.15.61-.31,1.02-.48.4-.17.83-.43,1.29-.78.61-.64,1.42-1.39,2.44-2.24,1.02-.84,2.24-1.81,3.68-2.91,1.22,4.32,1.82,6.61,1.77,6.85-2.1,1.49-4.23,3.02-6.4,4.58s-4.55,2.84-7.16,3.84c-.91.65-1.68,1.24-2.33,1.79-2.92,2.48-6.15,4.36-9.67,5.62-3.53,1.27-7.4,1.9-11.62,1.9-.94,0-1.78-.07-2.49-.22-.72-.15-1.31-.35-1.76-.6-1.32-.99-2.43-1.86-3.34-2.61-.95-.79-1.74-1.55-2.36-2.27-.62-.72-1.04-1.4-1.28-2.05-.33-.69-.49-1.54-.49-2.53,0-.99.13-2.21.38-3.65.07-.4.31-1.04.71-1.94.41-.89.64-1.51.7-1.86-.15-1.09-.38-2.21-.67-3.35-.29-1.14-.66-2.31-1.1-3.5Z" fill="#821f1b"/><path d="m673.83,613.58c.78-1.04,1.74-2.1,2.87-3.17,1.13-1.07,2.52-2.17,4.16-3.32.33-.99.65-1.97.97-2.94.32-.97.59-1.95.82-2.94.27-.7.65-1.51,1.14-2.46.49-.94,1.03-1.96,1.62-3.05.64-1.09,1.49-2.46,2.55-4.1,1.06-1.64,2.39-3.48,3.99-5.51,1.24-1.14,2.56-2.4,3.94-3.76,1.38-1.36,2.77-2.74,4.16-4.13.62-.45,1.29-.87,2.01-1.27.71-.4,1.44-.84,2.17-1.34.63-.2,1.33-.37,2.1-.52.77-.15,1.6-.22,2.5-.22,1.24,0,2.22.12,2.95.37.73.25,1.28.67,1.68,1.27.28.4.51.99.69,1.79.18.79.32,1.76.42,2.91-.03.99-.04,2.09-.06,3.28.05-.3-.06-.17-.33.37-.27.55-.68,1.42-1.24,2.61l-1.09,2.38c-1.12,2.38-3.17,5.14-6.15,8.27-2.99,3.13-6.9,6.71-11.73,10.73-.41.35-.78.78-1.12,1.3-.34.52-.56,1.08-.67,1.68-.18,1.04-.16,1.96.07,2.76.23.8.66,1.39,1.29,1.79.34.3.93.6,1.74.89.82.3,1.8.57,2.95.82,1.96-.15,3.78-.47,5.46-.97,1.68-.5,3.2-1.09,4.56-1.79.27-.15.71-.36,1.3-.63.59-.27,1.2-.63,1.83-1.08.39,1.44.74,2.73,1.03,3.87.29,1.14.52,2.14.67,2.98-3.32,2.78-6.26,4.88-8.82,6.3-2.56,1.42-4.81,2.12-6.75,2.12-.88.5-1.85.86-2.91,1.08-1.06.22-2.28.34-3.67.34-1.84,0-3.42-.27-4.74-.82-1.32-.54-2.36-1.34-3.12-2.38-.41-.5-.78-1.23-1.1-2.2-.33-.97-.64-2.12-.95-3.46-.25-1.09-.54-1.9-.84-2.42-.31-.52-.71-.78-1.2-.78-.4,0-.88.19-1.44.56-.56.37-1.21.93-1.94,1.68-.07-.75-.25-1.66-.56-2.76-.3-1.09-.71-2.46-1.21-4.1Zm28.11-24.21c-1.09,0-2.81,1.43-5.15,4.28-2.34,2.86-3.63,4.96-3.87,6.3-.05.3-.03.51.07.63.1.12.35.19.75.19.55,0,1.04-.28,1.49-.86.45-.57.87-1.1,1.25-1.6.63-.5,1.26-1.03,1.88-1.6.62-.57,1.23-1.13,1.82-1.68.72-.69,1.29-1.39,1.71-2.09.42-.69.69-1.39.82-2.09.08-.45.05-.81-.07-1.08-.13-.27-.36-.41-.71-.41Z" fill="#821f1b"/></g><g><g><path d="m546.57,190.03L596.1,5.48c.78-2.91-1.88-5.57-4.79-4.79l-184.55,49.53c-3.92,1.05-3.84,6.67.12,7.57,31.94,7.27,61.26,23.39,84.99,47.12,23.73,23.73,39.85,53.05,47.12,84.99.9,3.96,6.52,4.04,7.57.12Z" fill="#2f3a7c" stroke="#222221" stroke-miterlimit="10" stroke-width="1.11"/><path d="m187.48,272.9l-49.53,184.55c-.78,2.91,1.88,5.57,4.79,4.79l184.55-49.53c3.92-1.05,3.84-6.67-.12-7.57-31.94-7.27-61.26-23.39-84.99-47.12-23.73-23.73-39.85-53.05-47.12-84.99-.9-3.96-6.52-4.04-7.57-.12Z" fill="#2f3a7c" stroke="#222221" stroke-miterlimit="10" stroke-width="1.11"/></g><path d="m367.03,393.06c89.97,0,162.91-72.94,162.91-162.91,0-31.92-9.19-61.7-25.06-86.84h0c-2.68-4.25-5.55-8.36-8.6-12.33-.05-.06-.1-.13-.15-.19-3.03-3.93-6.23-7.72-9.6-11.35-.08-.09-.16-.17-.24-.26-1.09-1.17-2.2-2.33-3.32-3.47-.02-.02-.03-.04-.05-.05-2.33-2.36-4.73-4.64-7.2-6.85-.09-.08-.17-.15-.26-.23-1.13-1-2.27-1.99-3.42-2.97-.13-.11-.26-.22-.39-.33-2.51-2.11-5.09-4.14-7.73-6.1-.04-.03-.09-.06-.13-.09-1.22-.91-2.46-1.79-3.71-2.66-.21-.14-.42-.29-.62-.43-1.19-.82-2.4-1.63-3.61-2.42-.13-.08-.25-.17-.38-.25-2.7-1.75-5.46-3.42-8.28-5.02-.25-.14-.51-.28-.76-.42-1.16-.65-2.32-1.28-3.49-1.9-.28-.15-.55-.29-.83-.44-2.83-1.47-5.71-2.87-8.63-4.18-.26-.11-.52-.23-.77-.34-1.19-.52-2.38-1.03-3.58-1.53-.37-.15-.75-.31-1.12-.46-1.2-.48-2.41-.95-3.62-1.41-.28-.1-.55-.21-.83-.32-1.5-.56-3.02-1.09-4.54-1.61-.16-.05-.33-.1-.49-.16-1.33-.44-2.66-.86-4-1.27-.42-.13-.85-.25-1.28-.38-1.14-.34-2.28-.66-3.43-.97-.42-.11-.84-.23-1.26-.34-1.47-.39-2.95-.76-4.44-1.1-.06-.01-.12-.03-.18-.04-1.55-.36-3.12-.69-4.69-1.01-.43-.09-.86-.16-1.29-.25-1.15-.22-2.31-.43-3.48-.63-.5-.08-1-.17-1.5-.25-1.22-.19-2.44-.37-3.67-.54-.38-.05-.75-.11-1.13-.16-1.59-.21-3.18-.39-4.79-.55-.35-.03-.7-.06-1.05-.09-1.27-.12-2.53-.22-3.81-.31-.53-.04-1.05-.07-1.58-.1-1.16-.07-2.33-.13-3.5-.17-.5-.02-.99-.04-1.49-.06-1.63-.05-3.27-.08-4.92-.08s-3.28.03-4.92.08c-.5.01-1,.04-1.49.06-1.17.05-2.33.1-3.5.17-.53.03-1.06.06-1.58.1-1.27.09-2.54.19-3.81.31-.35.03-.7.06-1.05.09-1.6.16-3.2.34-4.79.55-.37.05-.75.11-1.12.16-1.23.17-2.45.35-3.68.54-.5.08-1,.16-1.5.25-1.16.2-2.32.41-3.47.63-.43.08-.87.16-1.3.25-1.57.31-3.13.65-4.69,1.01-.05.01-.11.03-.16.04-1.49.35-2.98.72-4.45,1.11-.42.11-.85.23-1.27.34-1.15.31-2.29.63-3.42.97-.43.13-.86.25-1.29.38-1.33.41-2.66.83-3.97,1.26-.17.06-.35.11-.52.17-1.52.51-3.04,1.05-4.54,1.6-.27.1-.55.21-.82.31-1.22.46-2.42.93-3.63,1.41-.38.15-.75.3-1.12.46-1.2.49-2.38,1-3.56,1.52-.27.12-.53.23-.8.35-2.92,1.31-5.8,2.7-8.62,4.17-.28.15-.56.29-.84.44-1.17.62-2.33,1.25-3.48,1.89-.26.15-.52.29-.78.44-2.81,1.59-5.56,3.26-8.27,5.01-.13.08-.25.17-.38.25-1.21.79-2.41,1.6-3.6,2.42-.21.15-.43.3-.64.45-1.24.86-2.46,1.74-3.67,2.63-.06.04-.11.08-.17.12-2.63,1.95-5.2,3.98-7.71,6.09-.14.11-.27.23-.4.34-1.14.97-2.27,1.95-3.39,2.94-.1.09-.19.17-.29.25-2.46,2.21-4.86,4.49-7.18,6.84-.02.02-.04.04-.06.06-1.12,1.13-2.22,2.29-3.31,3.45-.09.09-.17.19-.26.28-3.36,3.63-6.56,7.41-9.58,11.33-.05.07-.11.14-.16.21-.99,1.29-1.96,2.59-2.91,3.9,0,.01-.02.03-.03.04-1.97,2.73-3.85,5.52-5.66,8.37-15.88,25.14-25.08,54.93-25.08,86.87,0,89.97,72.94,162.91,162.91,162.91Z" fill="#adb13a" stroke="#222221" stroke-miterlimit="10" stroke-width="1.11"/><path d="m405.1,252.31c4.15-1.79,8.11-3.87,11.85-6.2.03-.02.06-.04.09-.06.67-.42,1.34-.85,2-1.28,26.68-17.17,44.4-47.1,44.4-81.12,0-53.16-43.25-96.42-96.42-96.42s-96.42,43.25-96.42,96.42c0,34.02,17.72,63.95,44.4,81.12.66.44,1.32.86,1.99,1.28.03.02.07.04.1.06,11.46,7.14,25.02,11.89,39.71,13.41.18.02.36.04.55.06,1.31.13,2.64.23,3.97.3.31.02.61.05.92.06,1.58.08,3.17.12,4.77.12,38.7,0,70.18,26.35,70.18,58.74s-31.48,58.74-70.18,58.74-70.18-26.35-70.18-58.74h-15.52c0,40.94,38.44,74.25,85.7,74.25s85.7-33.31,85.7-74.25c0-29.1-19.43-54.32-47.62-66.49Zm-38.07-169.56c43.79,0,79.54,34.98,80.84,78.47-11.74-28.89-43.54-49.65-80.84-49.65s-69.1,20.77-80.84,49.65c1.3-43.48,37.05-78.47,80.84-78.47Zm-3.99,161.7c-.22-.01-.45-.03-.67-.04-1.18-.07-2.36-.15-3.53-.27-.06,0-.11-.01-.17-.02-13.45-1.39-25.93-6.08-36.61-13.26-15.4-10.78-25.21-26.97-25.21-45.05,0-32.39,31.48-58.74,70.18-58.74s70.18,26.35,70.18,58.74c0,18.08-9.81,34.26-25.21,45.05-10.69,7.17-23.17,11.87-36.62,13.26-.06,0-.11.01-.17.02-1.17.12-2.35.2-3.53.27-.22.01-.44.03-.67.04-1.32.06-2.65.1-3.99.1s-2.67-.04-3.99-.1Z" fill="#fff" stroke="#232422" stroke-miterlimit="10" stroke-width="1.11"/></g></svg>