<?xml version="1.0" encoding="UTF-8"?><svg id="a" xmlns="http://www.w3.org/2000/svg" width="286.85mm" height="60.13mm" xmlns:xlink="http://www.w3.org/1999/xlink" viewBox="0 0 813.11 170.45"><defs><clipPath id="c"><rect x=".29" y="9.87" width="147.4" height="148.5" fill="none"/></clipPath><clipPath id="d"><rect x=".29" y="9.87" width="147.4" height="148.5" fill="none"/></clipPath><clipPath id="f"><rect x="165.45" width="647.66" height="170.45" fill="none"/></clipPath><clipPath id="g"><rect x="165.45" width="647.66" height="170.45" fill="none"/></clipPath></defs><g id="b"><g clip-path="url(#c)"><g clip-path="url(#d)"><path d="m131.72,70.79l15.93-59.34c.25-.94-.6-1.79-1.54-1.54l-59.34,15.93c-1.26.34-1.24,2.15.04,2.44,10.27,2.34,19.7,7.52,27.33,15.15,7.63,7.63,12.81,17.06,15.15,27.33.29,1.27,2.1,1.3,2.44.04" fill="#2f3a7c"/><path d="m131.72,70.79l15.93-59.34c.25-.94-.6-1.79-1.54-1.54l-59.34,15.93c-1.26.34-1.24,2.15.04,2.44,10.27,2.34,19.7,7.52,27.33,15.15,7.63,7.63,12.81,17.06,15.15,27.33.29,1.27,2.1,1.3,2.44.04Z" fill="none" stroke="#222221" stroke-miterlimit="10" stroke-width=".58"/><path d="m16.26,97.44L.34,156.78c-.25.94.6,1.79,1.54,1.54l59.34-15.93c1.26-.34,1.24-2.15-.04-2.44-10.27-2.34-19.7-7.52-27.33-15.15-7.63-7.63-12.81-17.06-15.15-27.33-.29-1.27-2.1-1.3-2.44-.04" fill="#2f3a7c"/><path d="m16.26,97.44L.34,156.78c-.25.94.6,1.79,1.54,1.54l59.34-15.93c1.26-.34,1.24-2.15-.04-2.44-10.27-2.34-19.7-7.52-27.33-15.15-7.63-7.63-12.81-17.06-15.15-27.33-.29-1.27-2.1-1.3-2.44-.04Z" fill="none" stroke="#222221" stroke-miterlimit="10" stroke-width=".58"/><path d="m73.99,136.08c28.93,0,52.38-23.45,52.38-52.38,0-10.26-2.96-19.84-8.06-27.92h0c-.86-1.36-1.79-2.69-2.77-3.96-.02-.02-.03-.04-.05-.06-.97-1.26-2-2.48-3.09-3.65-.03-.03-.05-.06-.08-.08-.35-.38-.71-.75-1.07-1.11,0,0-.01-.01-.02-.02-.75-.76-1.52-1.49-2.31-2.2-.03-.02-.06-.05-.08-.07-.36-.32-.73-.64-1.1-.95-.04-.03-.08-.07-.12-.11-.81-.68-1.64-1.33-2.49-1.96-.01-.01-.03-.02-.04-.03-.39-.29-.79-.58-1.19-.86-.07-.05-.13-.09-.2-.14-.38-.26-.77-.52-1.16-.78-.04-.03-.08-.05-.12-.08-.87-.56-1.76-1.1-2.66-1.61-.08-.05-.16-.09-.24-.14-.37-.21-.75-.41-1.12-.61-.09-.05-.18-.09-.27-.14-.91-.47-1.84-.92-2.78-1.34-.08-.04-.17-.07-.25-.11-.38-.17-.77-.33-1.15-.49-.12-.05-.24-.1-.36-.15-.39-.16-.77-.31-1.16-.45-.09-.03-.18-.07-.27-.1-.48-.18-.97-.35-1.46-.52-.05-.02-.11-.03-.16-.05-.43-.14-.86-.28-1.29-.41-.14-.04-.27-.08-.41-.12-.37-.11-.73-.21-1.1-.31-.14-.04-.27-.07-.41-.11-.47-.12-.95-.24-1.43-.36-.02,0-.04,0-.06-.01-.5-.12-1-.22-1.51-.32-.14-.03-.28-.05-.42-.08-.37-.07-.74-.14-1.12-.2-.16-.03-.32-.05-.48-.08-.39-.06-.78-.12-1.18-.17-.12-.02-.24-.04-.36-.05-.51-.07-1.02-.13-1.54-.18-.11-.01-.23-.02-.34-.03-.41-.04-.81-.07-1.22-.1-.17-.01-.34-.02-.51-.03-.37-.02-.75-.04-1.13-.06-.16,0-.32-.01-.48-.02-.53-.02-1.05-.03-1.58-.03s-1.06.01-1.58.03c-.16,0-.32.01-.48.02-.38.01-.75.03-1.12.06-.17.01-.34.02-.51.03-.41.03-.82.06-1.22.1-.11.01-.23.02-.34.03-.52.05-1.03.11-1.54.18-.12.02-.24.03-.36.05-.4.05-.79.11-1.18.17-.16.03-.32.05-.48.08-.37.06-.75.13-1.12.2-.14.03-.28.05-.42.08-.5.1-1.01.21-1.51.32-.02,0-.03,0-.05.01-.48.11-.96.23-1.43.36-.14.04-.27.07-.41.11-.37.1-.74.2-1.1.31-.14.04-.28.08-.41.12-.43.13-.85.27-1.28.41-.06.02-.11.04-.17.05-.49.16-.98.34-1.46.52-.09.03-.18.07-.26.1-.39.15-.78.3-1.17.45-.12.05-.24.1-.36.15-.38.16-.77.32-1.15.49-.09.04-.17.07-.26.11-.94.42-1.86.87-2.77,1.34-.09.05-.18.09-.27.14-.38.2-.75.4-1.12.61-.08.05-.17.09-.25.14-.9.51-1.79,1.05-2.66,1.61-.04.03-.08.05-.12.08-.39.25-.78.51-1.16.78-.07.05-.14.1-.21.14-.4.28-.79.56-1.18.85-.02.01-.04.03-.05.04-.85.63-1.67,1.28-2.48,1.96-.04.04-.09.07-.13.11-.37.31-.73.63-1.09.95-.03.03-.06.05-.09.08-.79.71-1.56,1.44-2.31,2.2,0,0-.01.01-.02.02-.36.36-.71.74-1.06,1.11-.03.03-.06.06-.08.09-1.08,1.17-2.11,2.38-3.08,3.64-.02.02-.04.05-.05.07-.32.41-.63.83-.94,1.25,0,0,0,0,0,.01-.63.88-1.24,1.77-1.82,2.69-5.11,8.08-8.06,17.66-8.06,27.93,0,28.93,23.45,52.38,52.38,52.38" fill="#acb03a"/><path d="m73.99,136.08c28.93,0,52.38-23.45,52.38-52.38,0-10.26-2.96-19.84-8.06-27.92h0c-.86-1.36-1.79-2.69-2.77-3.96-.02-.02-.03-.04-.05-.06-.97-1.26-2-2.48-3.09-3.65-.03-.03-.05-.06-.08-.08-.35-.38-.71-.75-1.07-1.11,0,0-.01-.01-.02-.02-.75-.76-1.52-1.49-2.31-2.2-.03-.02-.06-.05-.08-.07-.36-.32-.73-.64-1.1-.95-.04-.03-.08-.07-.12-.11-.81-.68-1.64-1.33-2.49-1.96-.01-.01-.03-.02-.04-.03-.39-.29-.79-.58-1.19-.86-.07-.05-.13-.09-.2-.14-.38-.26-.77-.52-1.16-.78-.04-.03-.08-.05-.12-.08-.87-.56-1.76-1.1-2.66-1.61-.08-.05-.16-.09-.24-.14-.37-.21-.75-.41-1.12-.61-.09-.05-.18-.09-.27-.14-.91-.47-1.84-.92-2.78-1.34-.08-.04-.17-.07-.25-.11-.38-.17-.77-.33-1.15-.49-.12-.05-.24-.1-.36-.15-.39-.16-.77-.31-1.16-.45-.09-.03-.18-.07-.27-.1-.48-.18-.97-.35-1.46-.52-.05-.02-.11-.03-.16-.05-.43-.14-.86-.28-1.29-.41-.14-.04-.27-.08-.41-.12-.37-.11-.73-.21-1.1-.31-.14-.04-.27-.07-.41-.11-.47-.12-.95-.24-1.43-.36-.02,0-.04,0-.06-.01-.5-.12-1-.22-1.51-.32-.14-.03-.28-.05-.42-.08-.37-.07-.74-.14-1.12-.2-.16-.03-.32-.05-.48-.08-.39-.06-.78-.12-1.18-.17-.12-.02-.24-.04-.36-.05-.51-.07-1.02-.13-1.54-.18-.11-.01-.23-.02-.34-.03-.41-.04-.81-.07-1.22-.1-.17-.01-.34-.02-.51-.03-.37-.02-.75-.04-1.13-.06-.16,0-.32-.01-.48-.02-.53-.02-1.05-.03-1.58-.03s-1.06.01-1.58.03c-.16,0-.32.01-.48.02-.38.01-.75.03-1.12.06-.17.01-.34.02-.51.03-.41.03-.82.06-1.22.1-.11.01-.23.02-.34.03-.52.05-1.03.11-1.54.18-.12.02-.24.03-.36.05-.4.05-.79.11-1.18.17-.16.03-.32.05-.48.08-.37.06-.75.13-1.12.2-.14.03-.28.05-.42.08-.5.1-1.01.21-1.51.32-.02,0-.03,0-.05.01-.48.11-.96.23-1.43.36-.14.04-.27.07-.41.11-.37.1-.74.2-1.1.31-.14.04-.28.08-.41.12-.43.13-.85.27-1.28.41-.06.02-.11.04-.17.05-.49.16-.98.34-1.46.52-.09.03-.18.07-.26.1-.39.15-.78.3-1.17.45-.12.05-.24.1-.36.15-.38.16-.77.32-1.15.49-.09.04-.17.07-.26.11-.94.42-1.86.87-2.77,1.34-.09.05-.18.09-.27.14-.38.2-.75.4-1.12.61-.08.05-.17.09-.25.14-.9.51-1.79,1.05-2.66,1.61-.04.03-.08.05-.12.08-.39.25-.78.51-1.16.78-.07.05-.14.1-.21.14-.4.28-.79.56-1.18.85-.02.01-.04.03-.05.04-.85.63-1.67,1.28-2.48,1.96-.04.04-.09.07-.13.11-.37.31-.73.63-1.09.95-.03.03-.06.05-.09.08-.79.71-1.56,1.44-2.31,2.2,0,0-.01.01-.02.02-.36.36-.71.74-1.06,1.11-.03.03-.06.06-.08.09-1.08,1.17-2.11,2.38-3.08,3.64-.02.02-.04.05-.05.07-.32.41-.63.83-.94,1.25,0,0,0,0,0,.01-.63.88-1.24,1.77-1.82,2.69-5.11,8.08-8.06,17.66-8.06,27.93,0,28.93,23.45,52.38,52.38,52.38Z" fill="none" stroke="#222221" stroke-miterlimit="10" stroke-width=".58"/><path d="m86.23,90.82c1.34-.58,2.61-1.24,3.81-1.99,0,0,.02-.01.03-.02.22-.14.43-.27.64-.41,8.58-5.52,14.28-15.15,14.28-26.08,0-17.09-13.91-31-31-31s-31,13.91-31,31c0,10.94,5.7,20.56,14.28,26.08.21.14.43.28.64.41.01,0,.02.01.03.02,3.68,2.3,8.04,3.82,12.77,4.31.06,0,.12.01.18.02.42.04.85.07,1.28.1.1,0,.2.01.3.02.51.02,1.02.04,1.53.04,12.44,0,22.57,8.47,22.57,18.89s-10.12,18.89-22.57,18.89-22.57-8.47-22.57-18.89h-4.99c0,13.16,12.36,23.88,27.55,23.88s27.55-10.71,27.55-23.88c0-9.36-6.25-17.47-15.31-21.38m-12.24-54.52c14.08,0,25.58,11.25,25.99,25.23-3.78-9.29-14-15.96-25.99-15.96s-22.22,6.68-25.99,15.97c.42-13.98,11.91-25.23,25.99-25.23m-1.28,51.99c-.07,0-.14,0-.21-.01-.38-.02-.76-.05-1.13-.09-.02,0-.04,0-.05,0-4.32-.45-8.34-1.96-11.77-4.26-4.95-3.47-8.11-8.67-8.11-14.49,0-10.41,10.12-18.89,22.57-18.89s22.57,8.47,22.57,18.89c0,5.81-3.16,11.02-8.1,14.48-3.44,2.31-7.45,3.82-11.77,4.26-.02,0-.04,0-.05,0-.38.04-.75.06-1.14.09-.07,0-.14.01-.21.01-.43.02-.85.03-1.28.03s-.86-.01-1.28-.03" fill="#fff"/><path d="m86.23,90.82c1.34-.58,2.61-1.24,3.81-1.99,0,0,.02-.01.03-.02.22-.14.43-.27.64-.41,8.58-5.52,14.28-15.15,14.28-26.08,0-17.09-13.91-31-31-31s-31,13.91-31,31c0,10.94,5.7,20.56,14.28,26.08.21.14.43.28.64.41.01,0,.02.01.03.02,3.68,2.3,8.04,3.82,12.77,4.31.06,0,.12.01.18.02.42.04.85.07,1.28.1.1,0,.2.01.3.02.51.02,1.02.04,1.53.04,12.44,0,22.57,8.47,22.57,18.89s-10.12,18.89-22.57,18.89-22.57-8.47-22.57-18.89h-4.99c0,13.16,12.36,23.88,27.55,23.88s27.55-10.71,27.55-23.88c0-9.36-6.25-17.47-15.31-21.38Zm-12.24-54.52c14.08,0,25.58,11.25,25.99,25.23-3.78-9.29-14-15.96-25.99-15.96s-22.22,6.68-25.99,15.97c.42-13.98,11.91-25.23,25.99-25.23Zm-1.28,51.99c-.07,0-.14,0-.21-.01-.38-.02-.76-.05-1.13-.09-.02,0-.04,0-.05,0-4.32-.45-8.34-1.96-11.77-4.26-4.95-3.47-8.11-8.67-8.11-14.49,0-10.41,10.12-18.89,22.57-18.89s22.57,8.47,22.57,18.89c0,5.81-3.16,11.02-8.1,14.48-3.44,2.31-7.45,3.82-11.77,4.26-.02,0-.04,0-.05,0-.38.04-.75.06-1.14.09-.07,0-.14.01-.21.01-.43.02-.85.03-1.28.03s-.86-.01-1.28-.03Z" fill="none" stroke="#232422" stroke-miterlimit="10" stroke-width=".58"/></g></g></g><g id="e"><g clip-path="url(#f)"><g clip-path="url(#g)"><g><path d="m214.39,123.48c-24.05,0-43.04-15.75-43.04-40.5,0-30.24,26.44-54.29,56.12-54.29,24.05,0,42.9,15.75,42.9,40.5,0,30.24-26.3,54.29-55.97,54.29Zm11.39-67.93c-12.8,0-24.05,13.78-24.05,26.16,0,8.58,5.34,15.19,14.2,15.19,12.8,0,24.05-13.78,24.05-26.16,0-8.58-5.34-15.19-14.2-15.19Z" fill="#2f3b79"/><path d="m322.54,120.95l-14.35-31.22h-3.38l-5.48,31.22h-28.55l15.75-89.73h37.97c15.19,0,26.86,9.42,26.86,25.17,0,10.27-6.61,21.38-16.03,25.88l19.69,38.68h-32.49Zm-5.34-66.24h-6.19l-2.25,12.94h5.77c4.36,0,8.72-3.38,8.72-8.02,0-3.38-3.09-4.92-6.05-4.92Z" fill="#2f3b79"/><path d="m390.61,120.95h-34.03l15.75-89.73h33.05c22.78,0,40.22,15.33,40.22,38.68,0,30.94-25.46,51.05-54.99,51.05Zm9-65.68h-2.95l-7.31,41.77h2.95c14.2,0,23.49-13.36,23.49-26.72,0-9.98-6.61-15.05-16.17-15.05Z" fill="#2f3b79"/><path d="m477.38,120.95h-29.96l15.75-89.73h29.96l-15.75,89.73Z" fill="#2f3b79"/></g><path d="m239.99,70.74c0,12.38-11.25,26.16-24.05,26.16-8.86,0-14.2-6.61-14.2-15.19,0-12.38,11.25-26.16,24.05-26.16,8.86,0,14.21,6.61,14.21,15.19Zm30.38-1.55c0-24.75-18.85-40.5-42.9-40.5-29.68,0-56.12,24.05-56.12,54.29,0,24.75,18.99,40.5,43.04,40.5,29.68,0,55.97-24.05,55.97-54.29Z" fill="none" stroke="#222221" stroke-miterlimit="10" stroke-width=".94"/><path d="m323.24,59.63c0,4.64-4.36,8.02-8.72,8.02h-5.77l2.25-12.94h6.19c2.95,0,6.05,1.55,6.05,4.92Zm31.78,61.32l-19.69-38.68c9.42-4.5,16.03-15.61,16.03-25.88,0-15.75-11.67-25.17-26.86-25.17h-37.97l-15.75,89.73h28.55l5.48-31.22h3.38l14.35,31.22h32.49Z" fill="none" stroke="#222221" stroke-miterlimit="10" stroke-width=".94"/><path d="m415.78,70.32c0,13.36-9.28,26.72-23.49,26.72h-2.95l7.31-41.77h2.95c9.56,0,16.17,5.06,16.17,15.05Zm29.82-.42c0-23.35-17.44-38.68-40.22-38.68h-33.05l-15.75,89.73h34.03c29.53,0,54.99-20.11,54.99-51.05Z" fill="none" stroke="#222221" stroke-miterlimit="10" stroke-width=".94"/><polygon points="493.13 31.22 463.18 31.22 447.42 120.95 477.38 120.95 493.13 31.22" fill="none" stroke="#222221" stroke-miterlimit="10" stroke-width=".94"/><path d="m567.61,100.42l2.75,6.32c-.64.5-2.05.94-4.22,1.3-2.18.36-5,.68-8.48.96-4.03,3.93-8.05,7.19-12.05,9.8-4.01,2.6-7.98,4.53-11.92,5.76-.92.27-1.97.57-3.16.89-.73,0-1.54-.15-2.4-.45-.87-.3-1.83-.72-2.88-1.27-1.1-.69-1.95-1.35-2.54-1.99-.6-.64-.89-1.3-.89-1.99,0-1.37.66-2.7,1.99-3.98,1.33-1.28,3.27-2.5,5.84-3.64,5.13-2.38,10.19-4.78,15.18-7.21.73,0,1.26.15,1.58.45.32.3.48.68.48,1.13,0,1.24-.88,2.28-2.64,3.12-1.76.85-2.64,1.45-2.64,1.82.32.46.59.69.82.69.59,0,1.91-.89,3.95-2.68,2.04-1.79,3.03-2.91,2.99-3.36l-.34-1.58.14-.27c1.19-1.05,2.07-1.99,2.64-2.82.57-.82.86-1.49.86-1.99,0-1.14-.57-2.68-1.72-4.6-1.15-1.92-2.86-4.23-5.15-6.94-1.74-2.11-3.48-3.99-5.22-5.67-1.74-1.67-3.41-3.15-5.01-4.43-.64-.55-1.19-1.09-1.65-1.61-.46-.53-.82-1.02-1.1-1.48-.5-.92-.9-1.67-1.2-2.27-.3-.59-.56-.98-.79-1.17-.23-.27-.54-.61-.93-1-.39-.39-.86-.83-1.41-1.34-.96-1.01-1.71-2.4-2.23-4.19-.53-1.79-.79-4-.79-6.66,0-1.74.24-3.42.72-5.05.48-1.62,1.18-3.08,2.09-4.36.14-.27.27-.59.41-.96.14-.37.3-.78.48-1.24,1.05-2.15,2.84-4.47,5.36-6.97,2.52-2.49,5.81-5.14,9.89-7.93.55-.27,1.21-.64,1.99-1.1.78-.46,1.65-1.05,2.61-1.79.55-.46,1.16-.87,1.82-1.24.66-.37,1.45-.71,2.37-1.03,1.24-.5,2.63-1.05,4.19-1.65,2.29-1.19,4.19-2.06,5.7-2.61s2.66-.82,3.43-.82c1.51,0,2.64.46,3.4,1.37.76.92,1.13,2.24,1.13,3.98,0,1.92-.15,3.49-.45,4.7-.3,1.21-.7,2.03-1.2,2.44-5.4,4.3-9.75,7.54-13.05,9.72-3.3,2.17-5.61,3.26-6.94,3.26-.64,0-1.15-.18-1.51-.55-.37-.37-.55-.92-.55-1.65,0-1.24,1.03-2.6,3.09-4.09,2.06-1.49,3.07-2.62,3.02-3.4l-.62-.41c-.23,0-.49.07-.79.21-.3.14-.61.32-.93.55-4.03,3.25-7.06,6.17-9.1,8.76-2.04,2.59-3.06,4.84-3.06,6.76,0,1.51.26,3.04.79,4.6.53,1.56,1.29,3.16,2.3,4.81.73,1.15,1.8,2.6,3.19,4.36,1.4,1.76,3.17,3.88,5.32,6.35,2.98,3.43,5.26,6.09,6.87,7.97,1.6,1.88,2.5,2.86,2.68,2.95.92,1.19,1.69,2.38,2.33,3.57.64,1.19,1.08,2.33,1.3,3.43.23.87.39,1.95.48,3.23.09,1.28.14,2.84.14,4.67,0,1.08.16,1.69.48,1.85.32.16.85.24,1.58.24.27,0,.49-.06.65-.17.16-.11.33-.26.51-.45Z" fill="#831f1d"/><path d="m567.31,100.63c.55-.96,1.26-1.93,2.13-2.92.87-.98,1.97-2,3.3-3.06.14-.92.27-1.82.41-2.71.14-.89.23-1.8.27-2.71.14-.64.35-1.4.65-2.27.3-.87.63-1.81,1-2.82.41-1.01.97-2.27,1.68-3.78s1.64-3.2,2.78-5.08c.96-1.05,1.97-2.21,3.02-3.47,1.05-1.26,2.1-2.53,3.16-3.81.5-.41,1.05-.8,1.65-1.17.59-.37,1.19-.78,1.79-1.24.55-.18,1.17-.34,1.85-.48.69-.14,1.44-.21,2.27-.21,1.14,0,2.07.12,2.78.34.71.23,1.29.62,1.75,1.17.32.37.63.92.93,1.65.3.73.58,1.63.86,2.68.14.92.3,1.92.48,3.02,0-.28-.08-.16-.24.34-.16.5-.4,1.3-.72,2.4l-.62,2.2c-.64,2.2-2.08,4.74-4.33,7.62-2.24,2.88-5.27,6.18-9.07,9.89-.32.32-.59.72-.82,1.2-.23.48-.34,1-.34,1.54,0,.96.17,1.81.51,2.54.34.73.83,1.28,1.48,1.65.37.28.95.55,1.75.82.8.28,1.75.53,2.85.76,1.79-.14,3.41-.43,4.88-.89,1.46-.46,2.77-1.01,3.92-1.65.23-.14.59-.33,1.1-.58.5-.25,1.01-.58,1.51-1,.59,1.33,1.12,2.52,1.58,3.57.46,1.05.82,1.97,1.1,2.75-2.61,2.56-4.98,4.5-7.11,5.8s-4.09,1.96-5.87,1.96c-.73.46-1.57.79-2.51,1-.94.21-2.05.31-3.33.31-1.69,0-3.19-.25-4.5-.75s-2.39-1.24-3.26-2.2c-.46-.46-.92-1.13-1.37-2.03-.46-.89-.94-1.96-1.44-3.19-.41-1.01-.8-1.75-1.17-2.23-.37-.48-.78-.72-1.24-.72-.37,0-.78.17-1.24.52-.46.34-.96.86-1.51,1.54-.18-.69-.5-1.53-.96-2.54-.46-1.01-1.05-2.27-1.79-3.78Zm21.98-22.32c-1.01,0-2.36,1.32-4.05,3.95-1.69,2.63-2.54,4.57-2.54,5.8,0,.27.06.47.17.58.11.11.35.17.72.17.5,0,.92-.26,1.24-.79.32-.53.62-1.02.89-1.48.5-.46,1-.95,1.48-1.48.48-.53.95-1.04,1.41-1.54.55-.64.96-1.28,1.24-1.92.28-.64.41-1.28.41-1.92,0-.41-.08-.74-.24-1-.16-.25-.4-.38-.72-.38Z" fill="#831f1d"/><path d="m601.76,100.77c.73-.96,1.47-1.97,2.2-3.02,3.34-2.75,6.08-5.39,8.21-7.93,2.13-2.54,3.67-4.91,4.64-7.11l-.69-3.3c.59-1.14,2.07-2.49,4.43-4.05,2.36-1.56,4.27-2.33,5.73-2.33,1.56,0,2.87.46,3.95,1.37,1.08.92,2.12,1.88,3.12,2.88.5.32.87.57,1.1.76,1.83,1.37,3.2,3.27,4.12,5.7.92,2.43,1.37,5.38,1.37,8.86,0,1.83-.71,4.45-2.13,7.86-1.42,3.41-2.13,5.99-2.13,7.73,0,.23.08.41.24.55.16.14.38.21.65.21.59,0,1.3-.26,2.13-.79.82-.53,1.72-1.25,2.68-2.16,2.43-2.38,3.89-3.7,4.4-3.95.5-.25,1.12-.68,1.85-1.27.37.92.8,1.9,1.3,2.95.5,1.05.98,2.18,1.44,3.37-.41.37-.88.8-1.41,1.3-.53.5-1.16,1.08-1.89,1.72-1.56,1.15-3.58,2.53-6.08,4.16s-5.48,3.49-8.96,5.6c-.92.59-1.97,1.08-3.16,1.44-1.92,0-3.37-.29-4.33-.86-.96-.57-1.44-1.5-1.44-2.78,0-.5.1-1.09.31-1.75.21-.66.49-1.38.86-2.16.28-.59.57-1.2.89-1.82.32-.62.59-1.25.82-1.89,1.01-2.88,1.77-5.56,2.3-8.04.53-2.47.79-4.69.79-6.66,0-2.43-.38-4.28-1.13-5.56-.76-1.28-1.89-2.01-3.4-2.2-1.01.55-2.11,1.33-3.3,2.33-1.19,1.01-2.4,2.27-3.64,3.78-1.33,1.65-2.52,3-3.57,4.05s-1.92,1.76-2.61,2.13c-.41.69-1.08,1.47-1.99,2.33-.92.87-2.13,1.81-3.64,2.82l-.41.82c-.18.37-.48.78-.89,1.24-.37-1.05-.78-2.09-1.24-3.12-.46-1.03-.96-2.09-1.51-3.19Z" fill="#831f1d"/><path d="m647.33,101.05c.18-.37.61-1,1.27-1.89.67-.89,1.61-2,2.85-3.33,1.28-1.28,2.35-2.48,3.19-3.6.85-1.12,1.45-2.12,1.82-2.99.55-1.05,1.2-2.38,1.96-3.98.76-1.6,1.59-3.46,2.51-5.56.14-.23,1.12-.97,2.95-2.23,1.83-1.26,2.97-1.89,3.43-1.89.59,0,1.04.42,1.34,1.27.3.85.45,2.14.45,3.88,0,2.56-.03,4.7-.1,6.42-.07,1.72-.24,3.1-.51,4.15.09.23.18.5.27.82.09.32.21.69.34,1.1-.09.46-.21.94-.34,1.44,0,5.45.21,9.51.62,12.19.41,2.68.96,4.02,1.65,4.02.87,0,2.11-1.16,3.71-3.47,1.6-2.31,3.55-5.8,5.84-10.47,2.29-4.53,4.03-8.25,5.22-11.16,1.19-2.91,1.88-5.09,2.06-6.56.41-2.56,1.09-4.5,2.03-5.8.94-1.3,2.21-1.96,3.81-1.96.46,0,.78.13.96.38.18.25.27.63.27,1.13,0,1.83-.24,3.7-.72,5.6-.48,1.9-1.23,3.79-2.23,5.67,0,1.24-.29,2.63-.86,4.19-.57,1.56-1.45,3.27-2.64,5.15-.41,1.24-.73,2.45-.96,3.64-.09.6-1.13,2.7-3.12,6.32-1.99,3.62-3.26,5.72-3.81,6.32,0,1.1-.53,2.42-1.58,3.95-1.05,1.53-2.68,3.29-4.88,5.25-.46.6-.94,1.17-1.44,1.72-.5.55-.99,1.1-1.44,1.65-.5.64-1.06,1.13-1.68,1.48s-1.34.51-2.16.51c-2.47,0-4.35-.94-5.63-2.82-1.28-1.88-1.92-4.69-1.92-8.45.14-.69.23-1.28.27-1.79-.23-.55-.46-1.27-.69-2.16-.23-.89-.39-1.89-.48-2.99,0-1.46-.01-2.66-.04-3.57-.02-.92-.1-1.53-.24-1.85l.48-1.58-.69-.41c-.32.14-1.17.92-2.54,2.33-1.37,1.42-3.32,3.5-5.84,6.25-.32-1.01-.71-2.01-1.17-3.02-.46-1.01-.98-2.11-1.58-3.3Z" fill="#831f1d"/><g><path d="m692.62,100.49l.41-.48.21-.69c1.24-1.69,3.41-3.9,6.52-6.63,3.11-2.72,5.26-4.93,6.46-6.63.46-.73.98-1.26,1.58-1.58.59-.32,1.19-.48,1.79-.48,1.6,0,2.95.4,4.05,1.2,1.1.8,1.83,2,2.2,3.61.32,1.42.62,2.85.89,4.29.27,1.44.5,2.9.69,4.36.32.92.71,2.3,1.17,4.15s.8,2.92,1.03,3.19c.23.46.57.79,1.03,1,.46.21,1.03.31,1.72.31.82,0,1.67-.15,2.54-.45.87-.3,1.76-.81,2.68-1.54.69-.59,1.41-1.2,2.16-1.82.76-.62,1.5-1.22,2.23-1.82l2.75,6.32c-.73.73-1.71,1.57-2.92,2.51-1.21.94-2.67,2.03-4.36,3.26-1.88,1.37-3.48,2.39-4.81,3.06-1.33.66-2.33,1-3.02,1-4.17,0-6.87-.48-8.1-1.44-1.24-.96-2.61-3.64-4.12-8.03-.18-.37-.46-.8-.82-1.3s-.78-1.1-1.24-1.79c-.55-1.05-1.03-1.84-1.44-2.37-.41-.53-.76-.79-1.03-.79-.73,0-1.72.49-2.95,1.48-1.24.99-2.75,2.46-4.53,4.43-.23-.59-.51-1.3-.86-2.13-.34-.82-.7-1.79-1.06-2.88-.09-.28-.21-.53-.34-.76-.14-.23-.3-.41-.48-.55Zm28.71-54.18c1.14,0,1.98.23,2.51.69.53.46.79,1.12.79,1.99-.28,1.28-.5,2.36-.69,3.23-.46,1.65-.86,3-1.2,4.05-.34,1.05-.61,1.81-.79,2.27-.41,1.01-.97,1.89-1.68,2.64-.71.76-1.57,1.43-2.58,2.03-1.05.73-1.93,1.25-2.64,1.54-.71.3-1.2.42-1.48.38-.78-.09-1.52-.17-2.23-.24-.71-.07-1.41-.1-2.09-.1-.6-.32-1.06-.94-1.41-1.85-.34-.92-.51-2.15-.51-3.71,0-1.37.83-3.1,2.51-5.19,1.67-2.08,3.15-3.19,4.43-3.33.78-.96,1.69-2.06,2.75-3.3.46-.32,1.05-.58,1.79-.79s1.58-.31,2.54-.31Z" fill="#831f1d"/><path d="m731.76,100.49l.62-.55c.05-.5.37-1.1.96-1.79.6-.69,1.44-1.49,2.54-2.4.69-.5,1.41-.98,2.16-1.44.75-.46,1.48-.96,2.16-1.51,2.88-2.47,5.68-4.85,8.38-7.14,1.56-1.37,3.11-2.55,4.67-3.54,1.56-.98,3.02-1.77,4.39-2.37.96-1.24,2.76-2.5,5.39-3.78,2.63-1.28,4.77-1.92,6.42-1.92.64,0,1.16.18,1.54.55.39.37.63.82.72,1.37v3.78c0,1.33-.38,2.51-1.13,3.54-.75,1.03-1.89,1.98-3.4,2.85-1.01.46-2.02.96-3.02,1.51-1.01.55-2.02,1.05-3.02,1.51-.37.46-1.34,1.32-2.92,2.58-1.58,1.26-3.72,2.94-6.42,5.05-1.24.96-2.27,1.82-3.09,2.58-.82.76-1.4,1.36-1.72,1.82-.46.87-.81,1.83-1.06,2.88-.25,1.05-.38,2.27-.38,3.64,0,1.05.16,1.96.48,2.71.32.75.8,1.36,1.44,1.82.46.32,1.09.64,1.89.96.8.32,1.8.64,2.99.96.69-.27,1.59-.54,2.71-.79,1.12-.25,2.37-.58,3.74-1,1.56-.92,3.15-1.88,4.77-2.88,1.62-1.01,3.24-2.04,4.84-3.09.23-.14.52-.29.86-.45.34-.16.7-.4,1.06-.72.46-.59,1.09-1.28,1.89-2.06.8-.78,1.77-1.67,2.92-2.68,1.83,3.98,2.75,6.09,2.75,6.32-1.69,1.37-3.41,2.78-5.15,4.22-1.74,1.44-3.73,2.62-5.97,3.54-.73.6-1.35,1.15-1.85,1.65-2.29,2.29-4.96,4.02-8,5.18-3.04,1.17-6.51,1.75-10.4,1.75-.87,0-1.65-.07-2.33-.21-.69-.14-1.26-.32-1.72-.55-1.37-.92-2.54-1.72-3.5-2.4-1.01-.73-1.85-1.43-2.54-2.09-.69-.66-1.19-1.29-1.51-1.89-.41-.64-.7-1.42-.86-2.33-.16-.92-.24-2.04-.24-3.37,0-.37.12-.96.34-1.79s.34-1.4.34-1.72c-.32-1.01-.71-2.04-1.17-3.09-.46-1.05-.98-2.13-1.58-3.23Z" fill="#831f1d"/><path d="m775.09,100.49c.55-.96,1.26-1.93,2.13-2.92.87-.98,1.97-2,3.3-3.06.14-.92.27-1.82.41-2.71.14-.89.23-1.8.27-2.71.14-.64.35-1.4.65-2.27.3-.87.63-1.81,1-2.82.41-1.01.97-2.27,1.68-3.78s1.64-3.2,2.78-5.08c.96-1.05,1.97-2.21,3.02-3.47,1.05-1.26,2.1-2.53,3.16-3.81.5-.41,1.05-.8,1.65-1.17.59-.37,1.19-.78,1.79-1.24.55-.18,1.17-.34,1.85-.48.69-.14,1.44-.21,2.27-.21,1.14,0,2.07.12,2.78.34.71.23,1.29.62,1.75,1.17.32.37.63.92.93,1.65.3.73.58,1.63.86,2.68.14.92.3,1.92.48,3.02,0-.28-.08-.16-.24.34-.16.5-.4,1.3-.72,2.4l-.62,2.2c-.64,2.2-2.08,4.74-4.33,7.62-2.24,2.88-5.27,6.18-9.07,9.89-.32.32-.59.72-.82,1.2-.23.48-.34,1-.34,1.54,0,.96.17,1.81.51,2.54.34.73.83,1.28,1.48,1.65.37.28.95.55,1.75.82.8.28,1.75.53,2.85.76,1.79-.14,3.41-.43,4.88-.89,1.46-.46,2.77-1.01,3.92-1.65.23-.14.59-.33,1.1-.58.5-.25,1.01-.58,1.51-1,.59,1.33,1.12,2.52,1.58,3.57.46,1.05.82,1.97,1.1,2.75-2.61,2.56-4.98,4.5-7.11,5.8s-4.09,1.96-5.87,1.96c-.73.46-1.57.79-2.51,1-.94.21-2.05.31-3.33.31-1.69,0-3.19-.25-4.5-.75s-2.39-1.24-3.26-2.2c-.46-.46-.92-1.13-1.37-2.03-.46-.89-.94-1.96-1.44-3.19-.41-1.01-.8-1.75-1.17-2.23-.37-.48-.78-.72-1.24-.72-.37,0-.78.17-1.24.52-.46.34-.96.86-1.51,1.54-.18-.69-.5-1.53-.96-2.54-.46-1.01-1.05-2.27-1.79-3.78Zm21.98-22.32c-1.01,0-2.36,1.32-4.05,3.95-1.69,2.63-2.54,4.57-2.54,5.8,0,.27.06.47.17.58.11.11.35.17.72.17.5,0,.92-.26,1.24-.79.32-.53.62-1.02.89-1.48.5-.46,1-.95,1.48-1.48.48-.53.95-1.04,1.41-1.54.55-.64.96-1.28,1.24-1.92.28-.64.41-1.28.41-1.92,0-.41-.08-.74-.24-1-.16-.25-.4-.38-.72-.38Z" fill="#831f1d"/></g></g></g></g></svg>